
            <svg class="icon" viewBox="0 0 32 32" xmlns="http://www.w3.org/2000/svg">
            <style>
                .background {fill:#0583ff} .primary {fill:#ffffff;} .secondary {fill:#afcefc;}
            </style>
            <rect class="background" width="32" height="32" rx="6"/><path d="m22.833 14.333c.174 0 .338.029.486.086.154.06.327.04.463-.054.137-.092.218-.247.218-.412v-2.12c0-.643-.523-1.167-1.167-1.167h-3.172c.004-.055.006-.111.006-.167 0-1.379-1.121-2.5-2.5-2.5-1.604 0-2.299 1.278-2.442 1.953-.051.241-.068.48-.053.713h-2.838c-.643 0-1.167.523-1.167 1.167v1.506c-.055-.004-.111-.006-.167-.006-1.379 0-2.5 1.121-2.5 2.5 0 1.616 1.435 2.576 2.667 2.494v1.839c0 .643.523 1.167 1.167 1.167h2.839c-.004.055-.006.111-.006.167 0 1.379 1.121 2.5 2.5 2.5 1.605 0 2.299-1.278 2.442-1.953.051-.241.068-.48.053-.713h3.172c.643 0 1.167-.523 1.167-1.167v-2.453c0-.165-.081-.319-.217-.412-.135-.093-.308-.114-.463-.054-.148.057-.312.086-.486.086-.827 0-1.5-.673-1.5-1.5s.671-1.5 1.498-1.5z" class="primary"/></svg>
            