
            <svg class="icon" viewBox="0 0 32 32" xmlns="http://www.w3.org/2000/svg">
            <style>
                .background {fill:#0583ff} .primary {fill:#ffffff;} .secondary {fill:#afcefc;}
            </style>
            <rect class="background" width="32" height="32" rx="6"/><g ></g><g id="bold"><path d="m21.5 24.083h-11.667c-.167 0-.323-.084-.416-.223l-1.333-2c-.102-.153-.112-.351-.025-.513s.257-.264.441-.264h8.667c.827 0 1.5-.673 1.5-1.5 0-.276.224-.5.5-.5h4.333c.173 0 .334.09.425.237s.099.332.022.487l-2 4c-.084.169-.258.276-.447.276z" class="primary"/><path d="m22.667 16.583v1.833h-1v-1.833c0-.273.227-.5.5-.5s.5.227.5.5z" class="primary"/><g class="secondary"><path d="m8.667 16.417v4h5.333v-4zm2.333 2.833c0 .276-.224.5-.5.5s-.5-.224-.5-.5v-1.667c0-.276.224-.5.5-.5s.5.224.5.5zm1.667 0c0 .276-.224.5-.5.5s-.5-.224-.5-.5v-1.667c0-.276.224-.5.5-.5s.5.224.5.5z"/><path d="m14.667 16.417v4h2.5c.413 0 .76-.307.82-.707-.187-.067-.32-.253-.32-.46v-1.667c0-.273.227-.5.5-.5s.5.227.5.5v.953c.153-.08.32-.12.5-.12h.833v-2h-5.333zm2.333 2.833c0 .273-.227.5-.5.5s-.5-.227-.5-.5v-1.667c0-.273.227-.5.5-.5s.5.227.5.5z"/><path d="m8.667 12.417v3.333h5.333v-3.333zm2.333 2.166c0 .276-.224.5-.5.5s-.5-.224-.5-.5v-1c0-.276.224-.5.5-.5s.5.224.5.5zm1.667 0c0 .276-.224.5-.5.5s-.5-.224-.5-.5v-1c0-.276.224-.5.5-.5s.5.224.5.5z"/><path d="m13.5 8.417h-4.333c-.276 0-.5.224-.5.5v2.833h5.333v-2.833c0-.276-.224-.5-.5-.5zm-2.5 2.166c0 .276-.224.5-.5.5s-.5-.224-.5-.5v-1c0-.276.224-.5.5-.5s.5.224.5.5zm1.667 0c0 .276-.224.5-.5.5s-.5-.224-.5-.5v-1c0-.276.224-.5.5-.5s.5.224.5.5z"/><path d="m19.5 12.417h-4.833v3.333h5.333v-2.833c0-.276-.224-.5-.5-.5zm-2.5 2.166c0 .276-.224.5-.5.5s-.5-.224-.5-.5v-1c0-.276.224-.5.5-.5s.5.224.5.5zm1.667 0c0 .276-.224.5-.5.5s-.5-.224-.5-.5v-1c0-.276.224-.5.5-.5s.5.224.5.5z"/></g></g></svg>
            