
            <svg class="icon" viewBox="0 0 32 32" xmlns="http://www.w3.org/2000/svg">
            <style>
                .background {fill:#0583ff} .primary {fill:#ffffff;} .secondary {fill:#afcefc;}
            </style>
            <rect class="background" width="32" height="32" rx="6"/><g transform="scale(0.0625)"><path d="m170.097656 244.65625c4.734375 0 8.878906-3.070312 10.285156-7.632812l17.152344-57.199219c2.898438-9.136719 11.089844-15.183594 20.464844-15.183594 9.359375 0 17.566406 6.03125 20.398438 15.023437l43.570312 145.007813 27.296875-61.121094c5.101563-11.472656 16.589844-18.910156 29.261719-18.910156h44.800781v-85.3125c0-17.648437-14.351563-32-32-32h-192c-17.648437 0-32 14.351563-32 32v85.328125zm0 0" class="secondary"/><path d="m338.527344 266c-4.253906 0-8.078125 2.464844-9.773438 6.257812l-27.3125 61.132813c-3.265625 7.617187-10.929687 12.609375-19.441406 12.609375-9.359375 0-17.566406-6.03125-20.398438-15.023438l-43.570312-145.007812-17.214844 57.277344c-4.222656 13.648437-16.542968 22.753906-30.703125 22.753906h-42.785156v85.328125c0 17.648437 14.351563 32 32 32h192c17.648437 0 32-14.351563 32-32v-85.328125zm0 0" class="primary"/></g></svg>
            