
            <svg class="icon" viewBox="0 0 32 32" xmlns="http://www.w3.org/2000/svg">
            <style>
                .background {fill:#0583ff} .primary {fill:#ffffff;} .secondary {fill:#afcefc;}
            </style>
            <rect class="background" width="32" height="32" rx="6"/><path d="m23.672 8.001c-3.123-.056-6.685 1.576-8.94 4.109-2.155.041-4.253.924-5.798 2.469-.09.089-.122.221-.083.341.04.12.144.208.27.226l2.569.368-.317.355c-.118.132-.112.333.013.458l4.285 4.285c.065.065.15.098.236.098.079 0 .159-.028.222-.085l.355-.317.368 2.569c.018.125.117.217.236.257.031.01.063.015.095.015.094 0 .191-.041.258-.107 1.524-1.523 2.406-3.621 2.447-5.776 2.536-2.259 4.181-5.82 4.109-8.94-.003-.177-.147-.32-.325-.325zm-3.072 5.755c-.325.325-.752.487-1.178.487-.427 0-.854-.162-1.179-.487-.649-.65-.649-1.707 0-2.357.65-.65 1.707-.65 2.357 0s.65 1.707 0 2.357z" class="primary"/><path d="m9.816 19.269c-.714.713-1.693 3.937-1.802 4.302-.035.118-.003.245.084.331.063.064.148.098.235.098.032 0 .064-.005.096-.014.365-.109 3.588-1.089 4.302-1.803.804-.804.804-2.111 0-2.914-.804-.804-2.111-.803-2.915 0z" class="secondary"/></svg>
            