
            <svg class="icon" viewBox="0 0 32 32" xmlns="http://www.w3.org/2000/svg">
            <style>
                .background {fill:#0583ff} .primary {fill:#ffffff;} .secondary {fill:#afcefc;}
            </style>
            <rect class="background" width="32" height="32" rx="6"/><path d="m23.805 15.529-2.481-2.481c.001-.017.01-.031.01-.048v-2c0-.368-.298-.667-.667-.667h-6.667v-1.666c0-.369-.298-.667-.667-.667h-4.667c-.368 0-.666.298-.666.667v4.667c0 .367.298.666.666.666h4.667c.369 0 .667-.299.667-.667v-1.667h6v1.334c0 .017.008.031.01.048l-2.481 2.481c-.26.26-.26.682 0 .943l2.481 2.481c-.001.016-.01.03-.01.047v1.333h-6.081c-.304-1.333-1.495-2.333-2.919-2.333-1.654 0-3 1.346-3 3s1.346 3 3 3c1.425 0 2.615-1 2.92-2.333h6.748c.369 0 .667-.299.667-.667v-2c0-.017-.008-.031-.01-.048l2.481-2.481c.26-.26.26-.682-.001-.942zm-11.138-2.862h-3.334v-3.334h3.333v3.334zm-1.667 10c-.919 0-1.667-.748-1.667-1.667s.747-1.667 1.667-1.667c.919 0 1.667.748 1.667 1.667s-.748 1.667-1.667 1.667z" class="primary"/></svg>
            