<svg id="bold" enable-background="new 0 0 32 32" height="512" viewBox="0 0 32 32" width="512" xmlns="http://www.w3.org/2000/svg"><path d="m26 32h-20c-3.314 0-6-2.686-6-6v-20c0-3.314 2.686-6 6-6h20c3.314 0 6 2.686 6 6v20c0 3.314-2.686 6-6 6z" fill="#f5e6fe"/><path d="m20.239 12.333h-8.478c-2.074 0-3.761 1.645-3.761 3.667s1.688 3.667 3.761 3.667c1.087 0 2.132-.469 2.843-1.267h2.792c.712.797 1.756 1.267 2.843 1.267 2.074 0 3.761-1.645 3.761-3.667s-1.687-3.667-3.761-3.667zm-7.572 4.334h-.333v.333c0 .368-.298.667-.667.667s-.667-.299-.667-.667v-.333h-.333c-.369 0-.667-.299-.667-.667s.298-.667.667-.667h.333v-.333c0-.368.298-.667.667-.667s.667.299.667.667v.333h.333c.369 0 .667.299.667.667s-.299.667-.667.667zm7.333-2.667c.368 0 .667.298.667.667 0 .368-.298.667-.667.667-.368 0-.667-.298-.667-.667s.299-.667.667-.667zm-1.333 2.667c-.368 0-.667-.299-.667-.667s.298-.667.667-.667.667.298.667.667c-.001.368-.299.667-.667.667zm1.333 1.333c-.368 0-.667-.298-.667-.667s.298-.667.667-.667c.368 0 .667.298.667.667s-.299.667-.667.667zm1.334-1.333c-.368 0-.667-.298-.667-.667 0-.368.298-.667.667-.667.368 0 .666.299.666.667s-.298.667-.666.667z" fill="#be63f9"/></svg>