
            <svg class="icon" xmlns="http://www.w3.org/2000/svg" xmlns:xlink="http://www.w3.org/1999/xlink" version="1.1" x="0px" y="0px" viewBox="0 0 32 32" xml:space="preserve" >
            <style>
                .background {fill:#0583ff} .primary {fill:#ffffff;} .secondary {fill:#afcefc;}
            </style>
            <rect class="background" width="32" height="32" rx="6"/><path class="primary" d="M16.111,8.006c-3.449-0.123-6.632,1.926-7.928,5.117c-0.324,0.8-0.214,1.693,0.296,2.388  c0.506,0.69,1.316,1.062,2.171,0.993l2.044-0.163c0.809-0.061,1.597,0.227,2.168,0.798c0.572,0.572,0.863,1.362,0.798,2.168  l-0.163,2.043c-0.068,0.853,0.303,1.665,0.993,2.171C16.92,23.838,17.428,24,17.943,24c0.314,0,0.631-0.061,0.934-0.184  c3.191-1.296,5.247-4.481,5.116-7.927C23.833,11.63,20.37,8.168,16.111,8.006z M12,14c-0.735,0-1.333-0.598-1.333-1.333  s0.598-1.333,1.333-1.333s1.333,0.598,1.333,1.333S12.735,14,12,14z M16.333,13.334c-0.919,0-1.667-0.748-1.667-1.667  c0-0.919,0.747-1.667,1.667-1.667C17.253,10,18,10.748,18,11.667C18,12.586,17.253,13.334,16.333,13.334z M18.667,22  c-0.735,0-1.333-0.598-1.333-1.333s0.598-1.333,1.333-1.333c0.735,0,1.333,0.598,1.333,1.333S19.402,22,18.667,22z M19.667,18.033  c-1.305,0-2.367-1.062-2.367-2.367s1.062-2.367,2.367-2.367s2.367,1.062,2.367,2.367S20.971,18.033,19.667,18.033z"/></svg>
            